<?xml version="1.0" encoding="utf-8"?>
<!-- Generator: Adobe Illustrator 15.1.0, SVG Export Plug-In  -->
<!DOCTYPE svg PUBLIC "-//W3C//DTD SVG 1.1//EN" "http://www.w3.org/Graphics/SVG/1.1/DTD/svg11.dtd" [
	<!ENTITY ns_flows "http://ns.adobe.com/Flows/1.0/">
]>
<svg version="1.1"
	 xmlns="http://www.w3.org/2000/svg" xmlns:xlink="http://www.w3.org/1999/xlink" xmlns:a="http://ns.adobe.com/AdobeSVGViewerExtensions/3.0/"
	 x="0px" y="0px" width="649px" height="174px" viewBox="-0.836 -0.805 649 174"
	 overflow="visible" enable-background="new -0.836 -0.805 649 174" xml:space="preserve">
<defs>
</defs>
<path fill="#8B0021" d="M190.592,103.305c0,18.242-0.348,20.674-10.424,21.717l-5.211,0.521c-1.043,1.043-0.696,3.822,0.347,4.344
	c9.728-0.348,15.288-0.521,22.583-0.521h15.984c17.894,0,34.397,0.174,43.256,0.521c2.433-4.691,7.296-22.411,7.296-24.323
	c0-1.215-3.3-1.91-4.343-1.041c-3.474,8.859-7.991,15.113-11.465,17.199c-2.78,1.563-6.427,2.258-21.195,2.258
	c-13.723,0-17.024-2.084-18.936-3.996c-3.127-3.3-3.647-7.818-3.647-18.762V40.764c0-18.24,0.347-21.02,10.596-21.889l4.17-0.348
	c1.042-0.693,0.694-3.82-0.349-4.342c-8.685,0.348-14.592,0.521-21.368,0.521c-6.948,0-12.855-0.174-22.583-0.521
	c-1.043,0.521-1.39,3.648-0.347,4.342l4.343,0.348c10.944,0.869,11.292,3.648,11.292,21.889V103.305L190.592,103.305z
	 M278.842,109.906c0,12.509-0.173,14.247-6.601,15.115l-3.647,0.521c-1.217,0.869-0.87,3.822,0.347,4.344
	c4.864-0.348,10.076-0.521,16.33-0.521c6.08,0,11.118,0.174,16.33,0.521c1.215-0.521,1.562-3.475,0.348-4.344l-3.649-0.521
	c-6.254-0.868-6.601-2.606-6.601-15.115v-31.27c0-7.123,0.347-15.461,0.695-21.543c-0.173-0.694-0.868-1.041-1.737-1.041
	c-3.996,2.604-13.897,7.123-17.893,8.512c-0.869,0.521-0.869,2.434-0.173,3.128l1.563,1.043c4.689,3.126,4.689,3.994,4.689,10.771
	V109.906L278.842,109.906z M314.28,114.25c0,9.034-0.173,12.335-0.348,14.767c0.348,0.695,1.042,1.043,1.737,1.043
	c0.347,0,0.522,0,0.696-0.174c0.868-1.216,2.258-2.606,3.649-2.606c1.389,0,3.647,1.042,7.296,2.259
	c3.474,1.042,8.338,2.259,14.767,2.259c23.278,0,39.956-16.156,39.956-39.262c0-19.111-13.377-34.052-33.182-34.052
	c-8.512,0-15.461,3.129-19.978,5.733c-1.042,0-1.737-0.694-1.737-3.647V27.734c0-7.643,0.347-15.461,0.696-21.541
	c-0.349-0.695-1.044-1.043-1.738-1.043c-6.601,3.475-14.941,5.734-18.937,7.297c-0.868,0.521-0.868,2.954,0,3.475l1.738,1.043
	c5.212,3.127,5.385,4.17,5.385,14.418V114.25L314.28,114.25z M327.136,78.637c0-6.775,0.347-8.687,2.085-9.901
	c2.433-1.563,6.602-2.78,11.812-2.78c17.199,0,26.406,13.897,26.406,31.79c0,14.94-6.428,28.84-22.758,28.84
	c-5.559,0-10.249-2.085-13.203-5.734c-2.953-3.646-4.343-9.033-4.343-15.112V78.637L327.136,78.637z M398.363,109.906
	c0,12.509-0.174,14.072-6.602,15.115l-3.301,0.521c-1.217,0.869-0.869,3.822,0.348,4.344c4.518-0.348,9.729-0.521,15.982-0.521
	c6.08,0,11.117,0.174,19.283,0.521c1.215-0.521,1.564-3.475,0.348-4.344l-6.254-0.521c-6.602-0.521-6.949-2.606-6.949-15.115V86.28
	c0-5.907,0.521-10.944,2.26-13.376c1.389-1.911,3.475-3.475,6.252-3.475c2.434,0,5.041,1.042,7.645,2.778
	c1.217,0.696,2.086,1.216,3.822,1.216c2.781,0,7.471-2.258,7.471-7.99c0-4.169-3.475-6.95-7.818-6.95
	c-6.428,0-13.027,5.387-19.109,10.425c-0.348-0.173-0.521-0.694-0.521-1.562V57.268c0-0.695-0.52-1.042-1.389-1.215
	c-4.344,2.604-13.551,7.123-17.546,8.512c-0.869,0.521-0.869,2.434-0.175,3.128l1.564,1.043c4.689,3.126,4.689,3.994,4.689,10.771
	V109.906L398.363,109.906z M458.468,100.873c-11.117,3.995-14.418,7.99-14.418,14.768c0,4.863,2.084,9.207,5.385,12.159
	c2.953,2.606,7.123,3.997,12.16,3.997c4.865,0,8.688-2.259,12.51-4.344c3.475-1.911,5.559-3.475,6.773-3.475
	c1.045,0,2.086,1.39,2.781,2.433c2.953,3.822,7.123,5.386,11.291,5.386c8.514,0,14.594-6.775,14.594-7.644
	c0-1.217-0.521-2.259-1.217-2.259c-0.52,0-1.389,0.695-2.258,1.216c-1.041,0.521-2.605,1.043-4.344,1.043
	c-6.775,0-8.338-7.124-7.99-15.116l1.043-30.227c0.52-13.029-5.559-20.327-18.068-20.327c-12.684,0-32.312,12.335-32.312,21.369
	c0,1.563,0.869,2.431,2.432,2.431c2.605,0,7.297-1.215,9.902-3.299c1.391-1.042,1.564-3.127,1.736-5.908
	c0.35-5.384,6.254-7.816,11.121-7.816c10.77,0,12.854,8.686,12.68,15.113l-0.172,7.992c0,2.605-0.348,4.17-2.955,5.037
	L458.468,100.873L458.468,100.873z M457.425,113.556c0-6.776,5.039-9.382,15.289-12.856c3.127-1.041,6.08-1.737,7.123-1.737
	c1.041,0,1.738,0.348,1.738,2.259l-0.348,10.249c-0.174,3.649-0.174,6.081-2.26,8.165c-1.736,1.738-7.121,4.344-10.598,4.344
	C459.511,123.979,457.425,116.508,457.425,113.556L457.425,113.556z M524.656,109.906c0,12.509-0.172,14.072-6.602,15.115
	l-3.301,0.521c-1.215,0.869-0.867,3.822,0.35,4.344c4.516-0.348,9.729-0.521,15.98-0.521c6.082,0,11.119,0.174,19.285,0.521
	c1.217-0.521,1.564-3.475,0.346-4.344l-6.252-0.521c-6.602-0.521-6.949-2.606-6.949-15.115V86.28c0-5.907,0.521-10.944,2.258-13.376
	c1.391-1.911,3.473-3.475,6.254-3.475c2.432,0,5.039,1.042,7.645,2.778c1.215,0.696,2.084,1.216,3.822,1.216
	c2.779,0,7.469-2.258,7.469-7.99c0-4.169-3.473-6.95-7.818-6.95c-6.428,0-13.027,5.387-19.107,10.425
	c-0.348-0.173-0.521-0.694-0.521-1.562V57.268c0-0.695-0.521-1.042-1.389-1.215c-4.346,2.604-13.553,7.123-17.549,8.512
	c-0.867,0.521-0.867,2.434-0.174,3.128l1.564,1.043c4.689,3.126,4.689,3.994,4.689,10.771V109.906L524.656,109.906z
	 M580.246,172.621c3.994,0,8.164-1.562,11.117-8.166c8.512-18.935,22.758-49.162,28.492-60.803l9.727-19.977
	c5.906-12.336,9.033-17.373,14.768-18.416l2.953-0.521c1.217-1.043,1.043-3.647-0.346-4.344c-4.865,0.349-8.863,0.521-13.205,0.521
	c-4.518,0-9.729-0.173-15.287-0.521c-1.389,0.521-1.564,3.476-0.348,4.344l5.385,0.869c3.127,0.521,4.17,1.738,4.17,2.953
	c0,1.911-2.258,8.339-6.08,17.373l-5.906,13.725c-3.129,7.121-5.908,12.506-6.428,12.854c-0.695-0.349-3.996-9.556-5.039-12.335
	l-5.559-15.981c-1.043-2.954-5.037-14.246-5.037-16.329c0-1.218,1.389-1.739,3.82-2.26l4.344-0.869
	c1.217-0.868,1.041-3.822-0.348-4.344c-5.559,0.349-10.424,0.521-15.113,0.521c-5.734,0-10.945-0.173-16.504-0.521
	c-1.391,0.521-1.564,3.476-0.521,4.344l4.344,0.869c6.08,1.215,7.295,5.386,10.248,13.551l13.551,37.177
	c2.258,6.428,2.955,8.513,2.955,11.986c0,2.434-1.219,6.08-1.738,7.471c-1.564,4.17-5.037,11.466-10.076,19.283
	c-1.217,1.911-2.953,3.127-5.732,3.127h-3.301c-3.822,0-6.949,2.259-6.949,6.949C572.601,169.495,575.207,172.621,580.246,172.621
	L580.246,172.621z"/>
<polygon fill="#D9D9D9" points="281.018,0 281.018,10.068 290.956,10.068 290.956,0 281.018,0 "/>
<polygon fill="#B3B3B3" points="284.601,8.669 284.601,18.738 294.538,18.738 294.538,8.669 284.601,8.669 "/>
<polygon fill="#8C8C8C" points="277.594,14.756 277.594,24.826 287.533,24.826 287.533,14.756 277.594,14.756 "/>
<polygon fill="#666666" points="284.61,23.437 284.61,33.506 294.549,33.506 294.549,23.437 284.61,23.437 "/>
<polygon fill="#404040" points="277.594,29.418 277.594,39.488 287.533,39.488 287.533,29.418 277.594,29.418 "/>
<polygon points="281.018,38.029 281.018,48.1 290.956,48.1 290.956,38.029 281.018,38.029 "/>
<path d="M190.594,103.307c0,18.24-0.348,20.672-10.423,21.715l-5.213,0.521c-1.042,1.043-0.695,3.822,0.348,4.342
	c9.728-0.346,15.288-0.52,22.583-0.52h15.983c17.895,0,34.398,0.174,43.258,0.52c2.432-4.689,7.297-22.41,7.297-24.32
	c0-1.217-3.302-1.911-4.345-1.043c-3.474,8.859-7.991,15.115-11.466,17.199c-2.779,1.562-6.428,2.258-21.194,2.258
	c-13.725,0-17.024-2.086-18.937-3.996c-3.127-3.299-3.648-7.816-3.648-18.762V40.766c0-18.242,0.348-21.021,10.598-21.889
	l4.17-0.349c1.042-0.694,0.695-3.821-0.349-4.343c-8.686,0.348-14.593,0.521-21.369,0.521c-6.949,0-12.855-0.174-22.583-0.521
	c-1.043,0.521-1.391,3.648-0.348,4.343l4.344,0.349c10.944,0.867,11.292,3.646,11.292,21.889V103.307L190.594,103.307z
	 M278.845,109.908c0,12.507-0.174,14.244-6.604,15.113l-3.646,0.521c-1.217,0.867-0.869,3.822,0.348,4.342
	c4.863-0.346,10.075-0.52,16.329-0.52c6.08,0,11.118,0.174,16.331,0.52c1.215-0.52,1.563-3.475,0.347-4.342l-3.648-0.521
	c-6.254-0.869-6.601-2.606-6.601-15.113V78.638c0-7.124,0.347-15.463,0.694-21.542c-0.175-0.695-0.868-1.042-1.737-1.042
	c-3.996,2.604-13.898,7.121-17.894,8.513c-0.868,0.52-0.868,2.43-0.174,3.126l1.563,1.042c4.691,3.127,4.691,3.996,4.691,10.771
	V109.908L278.845,109.908z M314.282,114.25c0,9.033-0.174,12.336-0.347,14.767c0.347,0.695,1.041,1.043,1.738,1.043
	c0.346,0,0.521,0,0.694-0.175c0.867-1.217,2.257-2.605,3.647-2.605c1.39,0,3.648,1.043,7.296,2.26
	c3.476,1.043,8.34,2.258,14.767,2.258c23.278,0,39.957-16.156,39.957-39.262c0-19.109-13.377-34.049-33.182-34.049
	c-8.513,0-15.462,3.126-19.978,5.731c-1.042,0-1.738-0.694-1.738-3.647V27.736c0-7.645,0.348-15.461,0.696-21.542
	c-0.349-0.696-1.043-1.043-1.738-1.043c-6.602,3.476-14.941,5.733-18.936,7.296c-0.869,0.522-0.869,2.953,0,3.476l1.736,1.042
	c5.212,3.127,5.386,4.17,5.386,14.419V114.25L314.282,114.25z M327.137,78.638c0-6.776,0.348-8.687,2.085-9.903
	c2.432-1.564,6.602-2.779,11.812-2.779c17.199,0,26.406,13.899,26.406,31.791c0,14.941-6.428,28.84-22.758,28.84
	c-5.558,0-10.248-2.085-13.201-5.733c-2.954-3.648-4.345-9.036-4.345-15.114V78.638L327.137,78.638z M398.366,109.908
	c0,12.507-0.175,14.07-6.604,15.113l-3.3,0.521c-1.217,0.867-0.868,3.822,0.347,4.342c4.517-0.346,9.729-0.52,15.983-0.52
	c6.081,0,11.118,0.174,19.283,0.52c1.215-0.52,1.563-3.475,0.347-4.342l-6.253-0.521c-6.602-0.521-6.949-2.606-6.949-15.113V86.28
	c0-5.906,0.521-10.944,2.258-13.376c1.391-1.912,3.475-3.476,6.252-3.476c2.434,0,5.041,1.043,7.646,2.781
	c1.217,0.694,2.085,1.216,3.821,1.216c2.781,0,7.472-2.26,7.472-7.99c0-4.171-3.477-6.949-7.819-6.949
	c-6.428,0-13.029,5.385-19.108,10.423c-0.348-0.175-0.521-0.694-0.521-1.563V57.269c0-0.694-0.521-1.041-1.39-1.215
	c-4.343,2.604-13.551,7.121-17.547,8.513c-0.867,0.52-0.867,2.43-0.174,3.126l1.565,1.042c4.69,3.127,4.69,3.996,4.69,10.771
	V109.908L398.366,109.908z M458.469,100.875c-11.117,3.994-14.418,7.989-14.418,14.766c0,4.864,2.085,9.206,5.386,12.158
	c2.952,2.607,7.123,3.998,12.16,3.998c4.864,0,8.687-2.258,12.509-4.344c3.474-1.91,5.559-3.475,6.775-3.475
	c1.042,0,2.083,1.391,2.779,2.432c2.953,3.822,7.122,5.387,11.291,5.387c8.513,0,14.593-6.775,14.593-7.645
	c0-1.216-0.521-2.26-1.216-2.26c-0.521,0-1.391,0.697-2.259,1.219c-1.041,0.521-2.605,1.041-4.344,1.041
	c-6.774,0-8.338-7.122-7.99-15.114l1.042-30.228c0.521-13.028-5.559-20.324-18.066-20.324c-12.683,0-32.313,12.333-32.313,21.368
	c0,1.562,0.87,2.43,2.434,2.43c2.605,0,7.296-1.216,9.901-3.3c1.39-1.043,1.563-3.127,1.736-5.906
	c0.349-5.386,6.255-7.817,11.119-7.817c10.771,0,12.855,8.685,12.682,15.113l-0.175,7.991c0,2.605-0.346,4.17-2.953,5.039
	L458.469,100.875L458.469,100.875z M457.428,113.556c0-6.774,5.038-9.382,15.288-12.855c3.126-1.043,6.08-1.738,7.121-1.738
	c1.044,0,1.737,0.348,1.737,2.259l-0.347,10.25c-0.173,3.648-0.173,6.08-2.258,8.166c-1.738,1.736-7.124,4.342-10.598,4.342
	C459.513,123.979,457.428,116.508,457.428,113.556L457.428,113.556z M524.658,109.908c0,12.507-0.174,14.07-6.601,15.113
	l-3.301,0.521c-1.217,0.867-0.87,3.822,0.347,4.342c4.517-0.346,9.729-0.52,15.982-0.52c6.08,0,11.118,0.174,19.284,0.52
	c1.214-0.52,1.562-3.475,0.346-4.342l-6.253-0.521c-6.601-0.521-6.949-2.606-6.949-15.113V86.28c0-5.906,0.521-10.944,2.258-13.376
	c1.392-1.912,3.475-3.476,6.255-3.476c2.434,0,5.037,1.043,7.643,2.781c1.217,0.694,2.086,1.216,3.824,1.216
	c2.778,0,7.469-2.26,7.469-7.99c0-4.171-3.476-6.949-7.817-6.949c-6.429,0-13.029,5.385-19.11,10.423
	c-0.347-0.175-0.521-0.694-0.521-1.563V57.269c0-0.694-0.521-1.041-1.39-1.215c-4.344,2.604-13.55,7.121-17.546,8.513
	c-0.869,0.52-0.869,2.43-0.175,3.126l1.563,1.042c4.691,3.127,4.691,3.996,4.691,10.771V109.908L524.658,109.908z M580.246,172.621
	c3.996,0,8.165-1.563,11.118-8.166c8.512-18.934,22.757-49.161,28.49-60.802l9.729-19.977c5.906-12.335,9.033-17.374,14.768-18.416
	l2.954-0.521c1.214-1.043,1.041-3.649-0.351-4.344c-4.862,0.349-8.858,0.521-13.201,0.521c-4.517,0-9.729-0.172-15.287-0.521
	c-1.392,0.521-1.564,3.476-0.349,4.344l5.386,0.868c3.127,0.521,4.171,1.738,4.171,2.953c0,1.911-2.261,8.338-6.082,17.373
	l-5.907,13.724c-3.126,7.124-5.905,12.509-6.426,12.856c-0.696-0.348-3.997-9.555-5.039-12.336l-5.559-15.98
	c-1.044-2.953-5.038-14.246-5.038-16.332c0-1.215,1.391-1.736,3.821-2.258l4.343-0.868c1.216-0.868,1.042-3.823-0.348-4.344
	c-5.559,0.349-10.422,0.521-15.114,0.521c-5.731,0-10.943-0.172-16.503-0.521c-1.39,0.521-1.562,3.476-0.52,4.344l4.341,0.868
	c6.082,1.217,7.295,5.385,10.248,13.551l13.553,37.176c2.258,6.429,2.953,8.513,2.953,11.988c0,2.43-1.217,6.079-1.736,7.47
	c-1.563,4.169-5.038,11.466-10.077,19.283c-1.215,1.911-2.952,3.127-5.732,3.127h-3.301c-3.821,0-6.948,2.259-6.948,6.949
	C572.602,169.495,575.208,172.621,580.246,172.621L580.246,172.621z"/>
<path d="M117.353,17.918h-5.119v-3.413h13.937v3.413h-5.118v13.408h-3.701V17.918z"/>
<path d="M130.458,14.505h3.701v6.657h6.825v-6.657h3.7v16.821h-3.7v-6.752h-6.825v6.752h-3.701V14.505z"/>
<path d="M150.174,14.505h12.688v3.292h-9.012v3.412h7.931v3.293h-7.931v3.533h9.132v3.291h-12.809V14.505z"/>
<path d="M0,56.978v-9.612h3.701v9.516c0,2.74,1.369,4.158,3.628,4.158c2.258,0,3.629-1.371,3.629-4.037v-9.637h3.701v9.492
	c0,5.095-2.86,7.594-7.378,7.594C2.764,64.451,0,61.928,0,56.978z"/>
<path d="M19.884,47.365h3.412l7.882,10.357V47.365h3.652v16.821h-3.148l-8.146-10.692v10.692h-3.653V47.365z"/>
<path d="M40.488,47.365h3.702v16.821h-3.702V47.365z"/>
<path d="M48.4,47.365h4.085l4.397,11.848l4.397-11.848h3.989l-6.801,16.941H55.2L48.4,47.365z"/>
<path d="M69.316,47.365h12.688v3.293h-9.012v3.412h7.931v3.291h-7.931v3.533h9.132v3.292H69.316V47.365z"/>
<path d="M86.868,47.365h7.689c2.139,0,3.797,0.602,4.903,1.707c0.938,0.936,1.442,2.258,1.442,3.844v0.048
	c0,2.716-1.466,4.423-3.605,5.215l4.11,6.008h-4.326l-3.604-5.382h-2.908v5.382h-3.701V47.365z M94.318,55.537
	c1.802,0,2.835-0.962,2.835-2.38v-0.048c0-1.586-1.105-2.403-2.908-2.403h-3.677v4.831H94.318z"/>
<path d="M104.54,61.736l2.187-2.62c1.515,1.251,3.101,2.043,5.022,2.043c1.514,0,2.428-0.601,2.428-1.586v-0.048
	c0-0.938-0.577-1.418-3.388-2.139c-3.389-0.865-5.575-1.803-5.575-5.144v-0.048c0-3.051,2.451-5.069,5.888-5.069
	c2.451,0,4.542,0.769,6.247,2.139l-1.922,2.787c-1.49-1.033-2.956-1.659-4.374-1.659c-1.418,0-2.163,0.649-2.163,1.467v0.049
	c0,1.104,0.722,1.465,3.628,2.209c3.413,0.891,5.335,2.115,5.335,5.047v0.049c0,3.34-2.548,5.215-6.176,5.215
	C109.13,64.428,106.558,63.539,104.54,61.736z"/>
<path d="M122.693,47.365h3.701v16.821h-3.701V47.365z"/>
<path d="M135.961,50.777h-5.119v-3.412h13.938v3.412h-5.118v13.409h-3.702V50.777z"/>
<path d="M153.802,57.555l-6.464-10.189h4.325l4.014,6.752l4.085-6.752h4.205l-6.464,10.117v6.704h-3.701V57.555z"/>
<path d="M127.887,88.684v-0.048c0-4.782,3.772-8.699,8.963-8.699c5.189,0,8.915,3.869,8.915,8.651v0.048
	c0,4.781-3.772,8.699-8.962,8.699C131.611,97.335,127.887,93.466,127.887,88.684z M141.896,88.684v-0.048
	c0-2.884-2.116-5.288-5.094-5.288c-2.98,0-5.047,2.357-5.047,5.24v0.048c0,2.884,2.115,5.286,5.095,5.286
	C139.829,93.922,141.896,91.567,141.896,88.684z"/>
<path d="M150.51,80.225h12.809v3.364h-9.107v3.581h8.026v3.365h-8.026v6.511h-3.702V80.225z"/>
<path d="M37.845,121.543v-0.049c0-4.781,3.604-8.697,8.771-8.697c3.172,0,5.07,1.056,6.632,2.594l-2.355,2.717
	c-1.297-1.179-2.62-1.9-4.301-1.9c-2.835,0-4.878,2.355-4.878,5.24v0.047c0,2.885,1.995,5.287,4.878,5.287
	c1.923,0,3.1-0.769,4.421-1.97l2.355,2.378c-1.73,1.852-3.652,3.004-6.896,3.004C41.521,130.193,37.845,126.373,37.845,121.543z"/>
<path d="M57.776,113.084h3.702v6.656h6.824v-6.656h3.7v16.821h-3.7v-6.753h-6.824v6.753h-3.702V113.084z"/>
<path d="M77.66,113.084h3.702v16.821H77.66V113.084z"/>
<path d="M86.27,121.543v-0.049c0-4.781,3.604-8.697,8.771-8.697c3.172,0,5.071,1.056,6.632,2.594l-2.355,2.717
	c-1.297-1.179-2.618-1.9-4.3-1.9c-2.836,0-4.879,2.355-4.879,5.24v0.047c0,2.885,1.994,5.287,4.879,5.287
	c1.922,0,3.099-0.769,4.421-1.97l2.354,2.378c-1.729,1.852-3.651,3.004-6.896,3.004C89.946,130.193,86.27,126.373,86.27,121.543z"/>
<path d="M111.967,112.963h3.413l7.209,16.942h-3.869l-1.538-3.772h-7.112l-1.538,3.772h-3.773L111.967,112.963z M115.86,122.864
	l-2.235-5.454l-2.234,5.454H115.86z"/>
<path d="M124.811,121.543v-0.049c0-4.781,3.724-8.697,8.818-8.697c3.028,0,4.854,0.816,6.608,2.307l-2.332,2.811
	c-1.297-1.081-2.45-1.707-4.397-1.707c-2.691,0-4.83,2.381-4.83,5.24v0.047c0,3.076,2.115,5.335,5.095,5.335
	c1.345,0,2.546-0.336,3.484-1.009v-2.403h-3.725v-3.196h7.305v7.306c-1.729,1.466-4.109,2.667-7.185,2.667
	C128.415,130.193,124.811,126.518,124.811,121.543z"/>
<path d="M145.104,121.543v-0.049c0-4.781,3.772-8.697,8.963-8.697c5.19,0,8.915,3.867,8.915,8.65v0.047
	c0,4.783-3.772,8.699-8.963,8.699C148.828,130.193,145.104,126.324,145.104,121.543z M159.113,121.543v-0.049
	c0-2.883-2.116-5.287-5.095-5.287c-2.979,0-5.047,2.355-5.047,5.24v0.047c0,2.885,2.115,5.287,5.095,5.287
	C157.046,126.781,159.113,124.427,159.113,121.543z"/>
</svg>
